<svg width="359" height="173" fill="none" xmlns="http://www.w3.org/2000/svg"><g filter="url(#filter0_d)"><path fill-rule="evenodd" clip-rule="evenodd" d="M16 4C10.477 4 6 8.477 6 14v64.653c.07.042.137.093.2.155l5.073 4.978a1 1 0 010 1.428L6.2 90.192c-.063.062-.13.113-.2.155V155c0 5.523 4.477 10 10 10h327c5.523 0 10-4.491 10-10.014v-64.64a1.037 1.037 0 01-.2-.154l-5.073-4.978a1 1 0 010-1.428l5.073-4.978a1.04 1.04 0 01.2-.155V14.014C353 8.491 348.523 4 343 4H16z" fill="#fff"/></g><defs><filter id="filter0_d" x="0" y="0" width="359" height="173" filterUnits="userSpaceOnUse" color-interpolation-filters="sRGB"><feFlood flood-opacity="0" result="BackgroundImageFix"/><feColorMatrix in="SourceAlpha" values="0 0 0 0 0 0 0 0 0 0 0 0 0 0 0 0 0 0 127 0"/><feOffset dy="2"/><feGaussianBlur stdDeviation="3"/><feColorMatrix values="0 0 0 0 0 0 0 0 0 0 0 0 0 0 0 0 0 0 0.15 0"/><feBlend in2="BackgroundImageFix" result="effect1_dropShadow"/><feBlend in="SourceGraphic" in2="effect1_dropShadow" result="shape"/></filter></defs></svg>