<svg width="268" height="130" fill="none" xmlns="http://www.w3.org/2000/svg"><g filter="url(#filter0_d)"><path fill-rule="evenodd" clip-rule="evenodd" d="M6 14C6 8.477 10.477 4 16 4h248c5.523 0 10 4.485 10 10.008v49.481a1.106 1.106 0 00-.179.133l-5.026 4.643a1.001 1.001 0 000 1.47l5.026 4.643c.057.052.117.096.179.133v49.481c0 5.523-4.477 10.008-10 10.008H16c-5.523 0-10-4.477-10-10V74.51c.062-.036.122-.08.179-.132l5.026-4.643a1 1 0 000-1.47l-5.026-4.643A1.044 1.044 0 006 63.49V14z" fill="#fff"/></g><defs><filter id="filter0_d" x="0" y="0" width="268" height="130" filterUnits="userSpaceOnUse" color-interpolation-filters="sRGB"><feFlood flood-opacity="0" result="BackgroundImageFix"/><feColorMatrix in="SourceAlpha" values="0 0 0 0 0 0 0 0 0 0 0 0 0 0 0 0 0 0 127 0"/><feOffset dy="2"/><feGaussianBlur stdDeviation="3"/><feColorMatrix values="0 0 0 0 0 0 0 0 0 0 0 0 0 0 0 0 0 0 0.15 0"/><feBlend in2="BackgroundImageFix" result="effect1_dropShadow"/><feBlend in="SourceGraphic" in2="effect1_dropShadow" result="shape"/></filter></defs></svg>