<svg width="268" height="130" fill="none" xmlns="http://www.w3.org/2000/svg"><mask id="a" fill="#fff"><path fill-rule="evenodd" clip-rule="evenodd" d="M0 10C0 4.477 4.477 0 10 0h248c5.523 0 10 4.485 10 10.008V60.38l-3.433 3.964a1.001 1.001 0 000 1.31L268 69.619v50.373c0 5.523-4.477 10.008-10 10.008H10c-5.523 0-10-4.477-10-10V69.619l3.433-3.964a1 1 0 000-1.31L0 60.381V10z"/></mask><path d="M268 60.381l.756.655.244-.282v-.373h-1zm-3.433 3.964l.756.655-.756-.655zm0 1.31l.756-.655-.756.655zM268 69.619h1v-.373l-.244-.282-.756.655zm-268 0l-.756-.655-.244.282v.373h1zm3.433-3.964l.756.654-.756-.654zm0-1.31L2.677 65l.756-.655zM0 60.381h-1v.373l.244.282L0 60.38zM10-1C3.925-1-1 3.925-1 10h2a9 9 0 019-9v-2zm248 0H10v2h248v-2zm11 11.008C269 3.933 264.076-1 258-1v2c4.97 0 9 4.036 9 9.008h2zm0 50.373V10.008h-2V60.38h2zM265.323 65l3.433-3.964-1.512-1.31-3.433 3.965L265.323 65zm0 0l-1.512-1.31a2 2 0 000 2.62l1.512-1.31zm3.433 3.964L265.323 65l-1.512 1.31 3.433 3.963 1.512-1.309zm.244 51.028V69.619h-2v50.373h2zM258 131c6.076 0 11-4.933 11-11.008h-2c0 4.972-4.03 9.008-9 9.008v2zm-248 0h248v-2H10v2zm-11-11c0 6.075 4.925 11 11 11v-2a9 9 0 01-9-9h-2zm0-50.381V120h2V69.619h-2zM2.677 65l-3.433 3.964 1.512 1.31 3.433-3.965L2.677 65zm0 0l1.512 1.31a2 2 0 000-2.62L2.677 65zm-3.433-3.964L2.677 65l1.512-1.31-3.433-3.963-1.512 1.309zM-1 10v50.381h2V10h-2z" fill="#DF212D" mask="url(#a)"/></svg>