<svg width="296" height="144" fill="none" xmlns="http://www.w3.org/2000/svg"><mask id="a" fill="#fff"><path fill-rule="evenodd" clip-rule="evenodd" d="M0 10C0 4.477 4.477 0 10 0h276c5.523 0 10 4.48 10 10.003v57.589a1.006 1.006 0 00-.335.207l-4.242 3.913a1 1 0 000 1.47l4.242 3.914c.103.095.217.163.335.207v56.694c0 5.523-4.477 10.003-10 10.003H10c-5.523 0-10-4.477-10-10V77.303c.118-.044.232-.112.335-.207l4.242-3.914a1 1 0 000-1.47L.335 67.8A1.009 1.009 0 000 67.592V10z"/></mask><path d="M296 67.592l.347.938.653-.242v-.696h-1zm-.335.207l-.678-.735.678.735zm-4.242 3.913l.679.735-.679-.735zm0 1.47l-.678.735.678-.735zm4.242 3.914l-.678.735.678-.735zm.335.207h1v-.697l-.653-.241-.347.938zm-296 0l-.347-.938-.653.241v.697h1zm.335-.207l.678.735-.678-.735zm4.242-3.914l.678.735-.678-.735zm0-1.47l-.679.735.679-.735zM.335 67.8l.678-.735-.678.735zM0 67.592h-1v.696l.653.242.347-.938zM10-1C3.925-1-1 3.925-1 10h2a9 9 0 019-9v-2zm276 0H10v2h276v-2zm11 11.003C297 3.93 292.076-1 286-1v2c4.97 0 9 4.032 9 9.003h2zm0 57.589V10.003h-2v57.589h2zm-.657.942l.005-.005h-.001l-.694-1.875c-.241.09-.467.227-.666.41l1.356 1.47zm-4.241 3.913l4.241-3.913-1.356-1.47-4.242 3.913 1.357 1.47zm0 0l-1.357-1.47a2 2 0 000 2.94l1.357-1.47zm4.241 3.914l-4.241-3.914-1.357 1.47 4.242 3.914 1.356-1.47zm.004.004h.002l.001.001-.002-.001-.005-.004-1.356 1.47c.199.183.425.32.666.41l.694-1.876zm.653 57.632V77.303h-2v56.694h2zM286 145c6.076 0 11-4.929 11-11.003h-2c0 4.971-4.03 9.003-9 9.003v2zm-276 0h276v-2H10v2zm-11-11c0 6.075 4.925 11 11 11v-2a9 9 0 01-9-9h-2zm0-56.697V134h2V77.303h-2zm.657-.942a.071.071 0 01-.005.004l-.002.001.003-.001.694 1.876c.241-.09.467-.227.666-.41l-1.356-1.47zm4.241-3.914l-4.241 3.914 1.356 1.47 4.242-3.914-1.357-1.47zm0 0l1.357 1.47a2 2 0 000-2.94l-1.357 1.47zm-4.241-3.913l4.241 3.913 1.357-1.47-4.242-3.913-1.356 1.47zm-.004-.004l-.002-.001H-.35h.002l.005.005 1.356-1.47a2.009 2.009 0 00-.666-.41l-.694 1.876zM-1 10v57.592h2V10h-2z" fill="#DF212D" mask="url(#a)"/></svg>