<svg width="121" height="50" fill="none" xmlns="http://www.w3.org/2000/svg"><g clip-path="url(#clip0)"><path d="M24.962 49.962c13.786 0 24.962-11.176 24.962-24.962S38.748.038 24.962.038 0 11.214 0 25s11.176 24.962 24.962 24.962z" fill="#34ABE0"/><path d="M50 25a24.87 24.87 0 01-2.198 10.257c-3.466 7.681-10.707 13.294-19.358 14.474a24.985 24.985 0 01-3.406.231c-9.152 0-17.153-4.925-21.498-12.269a24.94 24.94 0 01-2.24-4.955L33.998.038l.131 1.708.24 3.105 4.815.374.374 4.814 4.813.373.374 4.814 3.377.262A24.888 24.888 0 0150 25z" fill="#F9EED7"/><path d="M50 25a24.87 24.87 0 01-2.198 10.257l-24.51-24.511L33.999.037l.131 1.708.24 3.105 4.815.374.374 4.814 4.813.373.374 4.814 3.377.262A24.888 24.888 0 0150 25z" fill="#FF525D"/><path d="M34.837 37.4l-2.6-2.6c-1.813-1.814-3.682-1.265-5.22.274-1.556 1.556-2.088 3.407-.274 5.22l2.6 2.6c1.814 1.813 3.664 1.282 5.22-.275 1.538-1.538 2.088-3.406.274-5.22zm-1.867 3.626c-.569.568-1.173.622-1.777.018l-2.601-2.6c-.604-.604-.55-1.21.018-1.777.569-.567 1.191-.64 1.796-.037l2.6 2.601c.605.605.531 1.227-.036 1.795zm-4.58 8.424l-6.758-19.652a1.128 1.128 0 00-.275-.42c-.586-.587-1.538-.404-2.05.11-.33.328-.477.768-.313 1.226l6.641 19.24c.95-.023 1.887-.098 2.808-.224a.886.886 0 00-.053-.28zm-7.857-9.542l-2.6-2.601c-1.814-1.813-3.681-1.263-5.22.275-1.557 1.557-2.087 3.406-.275 5.22l2.601 2.6c1.813 1.813 3.663 1.282 5.22-.274 1.538-1.539 2.087-3.407.274-5.22zm-1.868 3.626c-.567.568-1.172.623-1.776.019l-2.6-2.602c-.606-.604-.55-1.208.018-1.775.567-.568 1.19-.641 1.794-.037l2.601 2.6c.604.604.53 1.228-.037 1.795z" fill="#FFD15C"/></g><path d="M67.152 25.288c.597.107 1.104.421 1.52.944.416.523.624 1.115.624 1.776 0 .565-.15 1.077-.448 1.536-.288.448-.71.805-1.264 1.072-.555.256-1.2.384-1.936.384H61.2V19.88h4.24c.757 0 1.408.128 1.952.384s.955.603 1.232 1.04c.277.427.416.907.416 1.44 0 .64-.17 1.173-.512 1.6-.341.427-.8.741-1.376.944zm-4.128-.736h2.256c.597 0 1.061-.133 1.392-.4.341-.277.512-.672.512-1.184 0-.501-.17-.89-.512-1.168-.33-.288-.795-.432-1.392-.432h-2.256v3.184zm2.464 4.96c.619 0 1.104-.15 1.456-.448.352-.299.528-.715.528-1.248 0-.544-.187-.976-.56-1.296-.373-.32-.87-.48-1.488-.48h-2.4v3.472h2.464zm7.614-8.16v3.264h3.84v1.488h-3.84v3.408h4.32V31h-6.144V19.864h6.144v1.488h-4.32zm5.959 4.064c0-1.088.25-2.064.752-2.928a5.427 5.427 0 012.064-2.016 5.755 5.755 0 012.864-.736c1.184 0 2.234.293 3.152.88.928.576 1.6 1.397 2.016 2.464h-2.192c-.288-.587-.688-1.024-1.2-1.312-.512-.288-1.104-.432-1.776-.432-.736 0-1.392.165-1.968.496-.576.33-1.03.805-1.36 1.424-.32.619-.48 1.339-.48 2.16 0 .821.16 1.541.48 2.16.33.619.784 1.099 1.36 1.44.576.33 1.232.496 1.968.496.672 0 1.264-.144 1.776-.432.512-.288.912-.725 1.2-1.312h2.192c-.416 1.067-1.088 1.888-2.016 2.464-.918.576-1.968.864-3.152.864-1.046 0-2-.24-2.864-.72a5.548 5.548 0 01-2.064-2.032c-.502-.864-.752-1.84-.752-2.928zm18.055 5.696c-1.035 0-1.99-.24-2.864-.72a5.548 5.548 0 01-2.064-2.032c-.502-.875-.752-1.856-.752-2.944 0-1.088.25-2.064.752-2.928a5.427 5.427 0 012.064-2.016 5.755 5.755 0 012.864-.736c1.045 0 2 .245 2.864.736a5.29 5.29 0 012.064 2.016c.501.864.752 1.84.752 2.928 0 1.088-.251 2.07-.752 2.944a5.404 5.404 0 01-2.064 2.032c-.864.48-1.819.72-2.864.72zm0-1.584c.736 0 1.392-.165 1.968-.496a3.506 3.506 0 001.344-1.44c.33-.63.496-1.355.496-2.176 0-.821-.166-1.541-.496-2.16a3.401 3.401 0 00-1.344-1.424c-.576-.33-1.232-.496-1.968-.496s-1.392.165-1.968.496c-.576.33-1.03.805-1.36 1.424-.32.619-.48 1.339-.48 2.16 0 .821.16 1.547.48 2.176.33.619.784 1.099 1.36 1.44.576.33 1.232.496 1.968.496z" fill="#333"/><defs><clipPath id="clip0"><path fill="#fff" d="M0 0h50v50H0z"/></clipPath></defs></svg>