<svg width="25" height="24" fill="none" xmlns="http://www.w3.org/2000/svg"><g clip-path="url(#clip0)"><path d="M11.982 23.982c6.617 0 11.981-5.365 11.981-11.982C23.963 5.383 18.6.018 11.982.018 5.364.018 0 5.383 0 12c0 6.617 5.364 11.982 11.982 11.982z" fill="#34ABE0"/><path d="M24 12c0 1.755-.377 3.421-1.055 4.923a11.994 11.994 0 01-10.927 7.059A11.976 11.976 0 01.624 15.714L16.32.018l.063.82.115 1.49 2.31.18.18 2.31 2.31.18.18 2.31 1.621.126C23.68 8.842 24 10.384 24 12z" fill="#F9EED7"/><path d="M24 12c0 1.755-.377 3.421-1.055 4.923L11.18 5.158l5.14-5.14.063.82.115 1.49 2.31.18.18 2.31 2.31.18.18 2.31 1.621.126C23.68 8.842 24 10.384 24 12z" fill="#FF525D"/><path d="M16.722 17.952l-1.248-1.248c-.87-.87-1.768-.607-2.506.131-.747.748-1.002 1.636-.132 2.506l1.248 1.248c.871.87 1.76.615 2.506-.132.738-.738 1.003-1.635.132-2.505zm-.897 1.74c-.272.273-.562.3-.852.01l-1.249-1.249c-.29-.29-.264-.58.009-.853.273-.272.572-.307.862-.017l1.248 1.248c.29.29.255.589-.018.861zm-2.197 4.044l-3.244-9.433a.543.543 0 00-.132-.202c-.281-.28-.739-.193-.985.053-.158.158-.228.37-.15.59l3.188 9.234c.456-.01.906-.047 1.348-.107a.422.422 0 00-.025-.135zm-3.772-4.58l-1.248-1.248c-.87-.87-1.767-.607-2.505.132-.747.747-1.002 1.635-.132 2.505l1.248 1.248c.87.87 1.758.616 2.506-.131.738-.739 1.002-1.636.131-2.506zm-.896 1.74c-.273.273-.563.3-.853.01l-1.248-1.249c-.29-.29-.264-.58.009-.852.272-.273.57-.308.86-.018l1.25 1.248c.29.29.254.59-.018.862z" fill="#FFD15C"/></g><defs><clipPath id="clip0"><path fill="#fff" d="M0 0h24v24H0z"/></clipPath></defs></svg>